M48
;DRILL file {KiCad 4.0.5} date Wed Mar  1 21:56:12 2017
;FORMAT={2:4/ absolute / inch / keep zeros}
FMAT,2
INCH,TZ
T1C0.025
T2C0.030
T3C0.031
T4C0.039
T5C0.047
T6C0.114
%
G90
G05
M72
T1
X048000Y-031300
X050600Y-027800
X050600Y-028800
X051400Y-025600
X052800Y-028800
X053200Y-029200
X056400Y-028200
X057400Y-037000
X058600Y-028800
X059400Y-024400
T2
X047000Y-030000
X049200Y-029200
X050800Y-029400
X053600Y-029800
X057600Y-029800
T3
X051000Y-032500
X054000Y-032500
T4
X044000Y-018500
X044000Y-019500
X044000Y-021000
X044000Y-022000
X044000Y-023000
X044000Y-024500
X044000Y-025500
X053000Y-025000
X054000Y-025000
X055000Y-025000
T5
X044500Y-036500
X045484Y-034516
X046469Y-036500
X051000Y-036500
X051984Y-034516
X052969Y-036500
X055500Y-031500
X061500Y-031500
T6
X049000Y-023500
X059000Y-023500
T0
M30
