G04 #@! TF.FileFunction,Copper,L2,Bot,Signal*
%FSLAX46Y46*%
G04 Gerber Fmt 4.6, Leading zero omitted, Abs format (unit mm)*
G04 Created by KiCad (PCBNEW 4.0.5) date Wed Mar  1 21:50:55 2017*
%MOMM*%
%LPD*%
G01*
G04 APERTURE LIST*
%ADD10C,0.150000*%
%ADD11R,1.600000X1.600000*%
%ADD12O,1.600000X1.600000*%
%ADD13R,1.700000X1.700000*%
%ADD14O,1.700000X1.700000*%
%ADD15R,1.800000X1.800000*%
%ADD16O,1.800000X1.800000*%
%ADD17C,2.400000*%
%ADD18O,2.400000X2.400000*%
%ADD19C,2.500000*%
%ADD20C,3.556000*%
%ADD21C,0.889000*%
%ADD22C,1.143000*%
%ADD23C,0.254000*%
%ADD24C,0.609600*%
G04 APERTURE END LIST*
D10*
D11*
X129540000Y-82550000D03*
D12*
X137160000Y-82550000D03*
D13*
X111760000Y-49530000D03*
D14*
X111760000Y-46990000D03*
D13*
X111760000Y-53340000D03*
D14*
X111760000Y-55880000D03*
X111760000Y-58420000D03*
D13*
X111760000Y-62230000D03*
D14*
X111760000Y-64770000D03*
D15*
X134620000Y-63500000D03*
D16*
X137160000Y-63500000D03*
X139700000Y-63500000D03*
D17*
X140970000Y-80010000D03*
D18*
X156210000Y-80010000D03*
D19*
X132040000Y-87670000D03*
X134540000Y-92710000D03*
X129540000Y-92710000D03*
X115530000Y-87670000D03*
X118030000Y-92710000D03*
X113030000Y-92710000D03*
D20*
X149860000Y-59690000D03*
X124460000Y-59690000D03*
D21*
X121920000Y-79502000D03*
X150876000Y-61976000D03*
X130556000Y-65024000D03*
X134112000Y-73152000D03*
X148844000Y-73152000D03*
X135128000Y-74168000D03*
X128524000Y-73152000D03*
X145796000Y-93980000D03*
X143256000Y-71628000D03*
X128524000Y-70612000D03*
D22*
X146304000Y-75692000D03*
X136144000Y-75692000D03*
X129032000Y-74676000D03*
X124968000Y-74168000D03*
X119380000Y-76200000D03*
D23*
X122682000Y-80264000D02*
X124968000Y-80264000D01*
X121920000Y-79502000D02*
X122682000Y-80264000D01*
X134620000Y-62484000D02*
X134620000Y-63500000D01*
X135128000Y-61976000D02*
X134620000Y-62484000D01*
X150876000Y-61976000D02*
X135128000Y-61976000D01*
X111760000Y-58420000D02*
X111760000Y-62230000D01*
X111760000Y-62230000D02*
X133350000Y-62230000D01*
X133350000Y-62230000D02*
X134620000Y-63500000D01*
X139700000Y-64516000D02*
X139700000Y-63500000D01*
X139192000Y-65024000D02*
X139700000Y-64516000D01*
X130556000Y-65024000D02*
X139192000Y-65024000D01*
X148844000Y-73152000D02*
X134112000Y-73152000D01*
X135128000Y-74168000D02*
X133096000Y-74168000D01*
X133096000Y-74168000D02*
X132080000Y-73152000D01*
X132080000Y-73152000D02*
X128524000Y-73152000D01*
X131318000Y-94488000D02*
X129540000Y-92710000D01*
X145288000Y-94488000D02*
X131318000Y-94488000D01*
X145796000Y-93980000D02*
X145288000Y-94488000D01*
X142240000Y-70612000D02*
X143256000Y-71628000D01*
X128524000Y-70612000D02*
X142240000Y-70612000D01*
D24*
X136144000Y-75692000D02*
X146304000Y-75692000D01*
X130048000Y-75692000D02*
X136144000Y-75692000D01*
X129032000Y-74676000D02*
X130048000Y-75692000D01*
X121412000Y-74168000D02*
X124968000Y-74168000D01*
X119380000Y-76200000D02*
X121412000Y-74168000D01*
D23*
G36*
X159310000Y-94540000D02*
X146732333Y-94540000D01*
X146875313Y-94195668D01*
X146875687Y-93766216D01*
X146711689Y-93369311D01*
X146408286Y-93065378D01*
X146011668Y-92900687D01*
X145582216Y-92900313D01*
X145185311Y-93064311D01*
X144881378Y-93367714D01*
X144732604Y-93726000D01*
X136159167Y-93726000D01*
X136424672Y-93086595D01*
X136425326Y-92336695D01*
X136138957Y-91643628D01*
X135609161Y-91112907D01*
X134916595Y-90825328D01*
X134166695Y-90824674D01*
X133473628Y-91111043D01*
X132942907Y-91640839D01*
X132655328Y-92333405D01*
X132654674Y-93083305D01*
X132920230Y-93726000D01*
X131633631Y-93726000D01*
X131298377Y-93390746D01*
X131424672Y-93086595D01*
X131425326Y-92336695D01*
X131138957Y-91643628D01*
X130609161Y-91112907D01*
X129916595Y-90825328D01*
X129166695Y-90824674D01*
X128473628Y-91111043D01*
X127942907Y-91640839D01*
X127655328Y-92333405D01*
X127654674Y-93083305D01*
X127941043Y-93776372D01*
X128470839Y-94307093D01*
X129031740Y-94540000D01*
X118537204Y-94540000D01*
X119096372Y-94308957D01*
X119627093Y-93779161D01*
X119914672Y-93086595D01*
X119915326Y-92336695D01*
X119628957Y-91643628D01*
X119099161Y-91112907D01*
X118406595Y-90825328D01*
X117656695Y-90824674D01*
X116963628Y-91111043D01*
X116432907Y-91640839D01*
X116145328Y-92333405D01*
X116144674Y-93083305D01*
X116431043Y-93776372D01*
X116960839Y-94307093D01*
X117521740Y-94540000D01*
X113537204Y-94540000D01*
X114096372Y-94308957D01*
X114627093Y-93779161D01*
X114914672Y-93086595D01*
X114915326Y-92336695D01*
X114628957Y-91643628D01*
X114099161Y-91112907D01*
X113406595Y-90825328D01*
X112656695Y-90824674D01*
X111963628Y-91111043D01*
X111432907Y-91640839D01*
X111145328Y-92333405D01*
X111144674Y-93083305D01*
X111431043Y-93776372D01*
X111960839Y-94307093D01*
X112521740Y-94540000D01*
X109930000Y-94540000D01*
X109930000Y-89003320D01*
X114376285Y-89003320D01*
X114505533Y-89296123D01*
X115205806Y-89564388D01*
X115955435Y-89544250D01*
X116554467Y-89296123D01*
X116683715Y-89003320D01*
X130886285Y-89003320D01*
X131015533Y-89296123D01*
X131715806Y-89564388D01*
X132465435Y-89544250D01*
X133064467Y-89296123D01*
X133193715Y-89003320D01*
X132040000Y-87849605D01*
X130886285Y-89003320D01*
X116683715Y-89003320D01*
X115530000Y-87849605D01*
X114376285Y-89003320D01*
X109930000Y-89003320D01*
X109930000Y-87345806D01*
X113635612Y-87345806D01*
X113655750Y-88095435D01*
X113903877Y-88694467D01*
X114196680Y-88823715D01*
X115350395Y-87670000D01*
X115709605Y-87670000D01*
X116863320Y-88823715D01*
X117156123Y-88694467D01*
X117424388Y-87994194D01*
X117406970Y-87345806D01*
X130145612Y-87345806D01*
X130165750Y-88095435D01*
X130413877Y-88694467D01*
X130706680Y-88823715D01*
X131860395Y-87670000D01*
X132219605Y-87670000D01*
X133373320Y-88823715D01*
X133666123Y-88694467D01*
X133934388Y-87994194D01*
X133914250Y-87244565D01*
X133666123Y-86645533D01*
X133373320Y-86516285D01*
X132219605Y-87670000D01*
X131860395Y-87670000D01*
X130706680Y-86516285D01*
X130413877Y-86645533D01*
X130145612Y-87345806D01*
X117406970Y-87345806D01*
X117404250Y-87244565D01*
X117156123Y-86645533D01*
X116863320Y-86516285D01*
X115709605Y-87670000D01*
X115350395Y-87670000D01*
X114196680Y-86516285D01*
X113903877Y-86645533D01*
X113635612Y-87345806D01*
X109930000Y-87345806D01*
X109930000Y-86336680D01*
X114376285Y-86336680D01*
X115530000Y-87490395D01*
X116683715Y-86336680D01*
X130886285Y-86336680D01*
X132040000Y-87490395D01*
X133193715Y-86336680D01*
X133064467Y-86043877D01*
X132364194Y-85775612D01*
X131614565Y-85795750D01*
X131015533Y-86043877D01*
X130886285Y-86336680D01*
X116683715Y-86336680D01*
X116554467Y-86043877D01*
X115854194Y-85775612D01*
X115104565Y-85795750D01*
X114505533Y-86043877D01*
X114376285Y-86336680D01*
X109930000Y-86336680D01*
X109930000Y-81750000D01*
X128092560Y-81750000D01*
X128092560Y-83350000D01*
X128136838Y-83585317D01*
X128275910Y-83801441D01*
X128488110Y-83946431D01*
X128740000Y-83997440D01*
X130340000Y-83997440D01*
X130575317Y-83953162D01*
X130791441Y-83814090D01*
X130936431Y-83601890D01*
X130987440Y-83350000D01*
X130987440Y-82550000D01*
X135696887Y-82550000D01*
X135806120Y-83099151D01*
X136117189Y-83564698D01*
X136582736Y-83875767D01*
X137131887Y-83985000D01*
X137188113Y-83985000D01*
X137737264Y-83875767D01*
X138202811Y-83564698D01*
X138513880Y-83099151D01*
X138623113Y-82550000D01*
X138513880Y-82000849D01*
X138202811Y-81535302D01*
X137737264Y-81224233D01*
X137188113Y-81115000D01*
X137131887Y-81115000D01*
X136582736Y-81224233D01*
X136117189Y-81535302D01*
X135806120Y-82000849D01*
X135696887Y-82550000D01*
X130987440Y-82550000D01*
X130987440Y-81750000D01*
X130943162Y-81514683D01*
X130804090Y-81298559D01*
X130591890Y-81153569D01*
X130340000Y-81102560D01*
X128740000Y-81102560D01*
X128504683Y-81146838D01*
X128288559Y-81285910D01*
X128143569Y-81498110D01*
X128092560Y-81750000D01*
X109930000Y-81750000D01*
X109930000Y-80373403D01*
X139134682Y-80373403D01*
X139413455Y-81048086D01*
X139929199Y-81564730D01*
X140603395Y-81844681D01*
X141333403Y-81845318D01*
X142008086Y-81566545D01*
X142524730Y-81050801D01*
X142785912Y-80421805D01*
X154421805Y-80421805D01*
X154654358Y-80983258D01*
X155145224Y-81504492D01*
X155798193Y-81798203D01*
X156083000Y-81681858D01*
X156083000Y-80137000D01*
X156337000Y-80137000D01*
X156337000Y-81681858D01*
X156621807Y-81798203D01*
X157274776Y-81504492D01*
X157765642Y-80983258D01*
X157998195Y-80421805D01*
X157881432Y-80137000D01*
X156337000Y-80137000D01*
X156083000Y-80137000D01*
X154538568Y-80137000D01*
X154421805Y-80421805D01*
X142785912Y-80421805D01*
X142804681Y-80376605D01*
X142805318Y-79646597D01*
X142785319Y-79598195D01*
X154421805Y-79598195D01*
X154538568Y-79883000D01*
X156083000Y-79883000D01*
X156083000Y-78338142D01*
X156337000Y-78338142D01*
X156337000Y-79883000D01*
X157881432Y-79883000D01*
X157998195Y-79598195D01*
X157765642Y-79036742D01*
X157274776Y-78515508D01*
X156621807Y-78221797D01*
X156337000Y-78338142D01*
X156083000Y-78338142D01*
X155798193Y-78221797D01*
X155145224Y-78515508D01*
X154654358Y-79036742D01*
X154421805Y-79598195D01*
X142785319Y-79598195D01*
X142526545Y-78971914D01*
X142010801Y-78455270D01*
X141336605Y-78175319D01*
X140606597Y-78174682D01*
X139931914Y-78453455D01*
X139415270Y-78969199D01*
X139135319Y-79643395D01*
X139134682Y-80373403D01*
X109930000Y-80373403D01*
X109930000Y-76438935D01*
X118173291Y-76438935D01*
X118356582Y-76882535D01*
X118695680Y-77222225D01*
X119138959Y-77406290D01*
X119618935Y-77406709D01*
X120062535Y-77223418D01*
X120402225Y-76884320D01*
X120586290Y-76441041D01*
X120586393Y-76322685D01*
X121801278Y-75107800D01*
X124201399Y-75107800D01*
X124283680Y-75190225D01*
X124726959Y-75374290D01*
X125206935Y-75374709D01*
X125650535Y-75191418D01*
X125990225Y-74852320D01*
X126174290Y-74409041D01*
X126174709Y-73929065D01*
X125991418Y-73485465D01*
X125652320Y-73145775D01*
X125209041Y-72961710D01*
X124729065Y-72961291D01*
X124285465Y-73144582D01*
X124201701Y-73228200D01*
X121412000Y-73228200D01*
X121052354Y-73299738D01*
X120747461Y-73503461D01*
X119257529Y-74993393D01*
X119141065Y-74993291D01*
X118697465Y-75176582D01*
X118357775Y-75515680D01*
X118173710Y-75958959D01*
X118173291Y-76438935D01*
X109930000Y-76438935D01*
X109930000Y-70825784D01*
X127444313Y-70825784D01*
X127608311Y-71222689D01*
X127911714Y-71526622D01*
X128308332Y-71691313D01*
X128737784Y-71691687D01*
X129134689Y-71527689D01*
X129288646Y-71374000D01*
X141924370Y-71374000D01*
X142176501Y-71626131D01*
X142176313Y-71841784D01*
X142340311Y-72238689D01*
X142491358Y-72390000D01*
X134876642Y-72390000D01*
X134724286Y-72237378D01*
X134327668Y-72072687D01*
X133898216Y-72072313D01*
X133501311Y-72236311D01*
X133197378Y-72539714D01*
X133032687Y-72936332D01*
X133032608Y-73026978D01*
X132618815Y-72613185D01*
X132508858Y-72539714D01*
X132371605Y-72448004D01*
X132080000Y-72390000D01*
X129288642Y-72390000D01*
X129136286Y-72237378D01*
X128739668Y-72072687D01*
X128310216Y-72072313D01*
X127913311Y-72236311D01*
X127609378Y-72539714D01*
X127444687Y-72936332D01*
X127444313Y-73365784D01*
X127608311Y-73762689D01*
X127911714Y-74066622D01*
X127968812Y-74090331D01*
X127825710Y-74434959D01*
X127825291Y-74914935D01*
X128008582Y-75358535D01*
X128347680Y-75698225D01*
X128790959Y-75882290D01*
X128909315Y-75882393D01*
X129383461Y-76356539D01*
X129688354Y-76560262D01*
X130048000Y-76631800D01*
X135377399Y-76631800D01*
X135459680Y-76714225D01*
X135902959Y-76898290D01*
X136382935Y-76898709D01*
X136826535Y-76715418D01*
X136910299Y-76631800D01*
X145537399Y-76631800D01*
X145619680Y-76714225D01*
X146062959Y-76898290D01*
X146542935Y-76898709D01*
X146986535Y-76715418D01*
X147326225Y-76376320D01*
X147510290Y-75933041D01*
X147510709Y-75453065D01*
X147327418Y-75009465D01*
X146988320Y-74669775D01*
X146545041Y-74485710D01*
X146065065Y-74485291D01*
X145621465Y-74668582D01*
X145537701Y-74752200D01*
X136910601Y-74752200D01*
X136828320Y-74669775D01*
X136385041Y-74485710D01*
X136165021Y-74485518D01*
X136207313Y-74383668D01*
X136207687Y-73954216D01*
X136191070Y-73914000D01*
X148079358Y-73914000D01*
X148231714Y-74066622D01*
X148628332Y-74231313D01*
X149057784Y-74231687D01*
X149454689Y-74067689D01*
X149758622Y-73764286D01*
X149923313Y-73367668D01*
X149923687Y-72938216D01*
X149759689Y-72541311D01*
X149456286Y-72237378D01*
X149059668Y-72072687D01*
X148630216Y-72072313D01*
X148233311Y-72236311D01*
X148079354Y-72390000D01*
X144020646Y-72390000D01*
X144170622Y-72240286D01*
X144335313Y-71843668D01*
X144335687Y-71414216D01*
X144171689Y-71017311D01*
X143868286Y-70713378D01*
X143471668Y-70548687D01*
X143254128Y-70548498D01*
X142778815Y-70073185D01*
X142668858Y-69999714D01*
X142531605Y-69908004D01*
X142240000Y-69850000D01*
X129288642Y-69850000D01*
X129136286Y-69697378D01*
X128739668Y-69532687D01*
X128310216Y-69532313D01*
X127913311Y-69696311D01*
X127609378Y-69999714D01*
X127444687Y-70396332D01*
X127444313Y-70825784D01*
X109930000Y-70825784D01*
X109930000Y-65126890D01*
X110318524Y-65126890D01*
X110488355Y-65536924D01*
X110878642Y-65965183D01*
X111403108Y-66211486D01*
X111633000Y-66090819D01*
X111633000Y-64897000D01*
X111887000Y-64897000D01*
X111887000Y-66090819D01*
X112116892Y-66211486D01*
X112641358Y-65965183D01*
X113031645Y-65536924D01*
X113201476Y-65126890D01*
X113080155Y-64897000D01*
X111887000Y-64897000D01*
X111633000Y-64897000D01*
X110439845Y-64897000D01*
X110318524Y-65126890D01*
X109930000Y-65126890D01*
X109930000Y-55880000D01*
X110245907Y-55880000D01*
X110358946Y-56448285D01*
X110680853Y-56930054D01*
X111010026Y-57150000D01*
X110680853Y-57369946D01*
X110358946Y-57851715D01*
X110245907Y-58420000D01*
X110358946Y-58988285D01*
X110680853Y-59470054D01*
X110998000Y-59681964D01*
X110998000Y-60732560D01*
X110910000Y-60732560D01*
X110674683Y-60776838D01*
X110458559Y-60915910D01*
X110313569Y-61128110D01*
X110262560Y-61380000D01*
X110262560Y-63080000D01*
X110306838Y-63315317D01*
X110445910Y-63531441D01*
X110658110Y-63676431D01*
X110766107Y-63698301D01*
X110488355Y-64003076D01*
X110318524Y-64413110D01*
X110439845Y-64643000D01*
X111633000Y-64643000D01*
X111633000Y-64623000D01*
X111887000Y-64623000D01*
X111887000Y-64643000D01*
X113080155Y-64643000D01*
X113201476Y-64413110D01*
X113031645Y-64003076D01*
X112755499Y-63700063D01*
X112845317Y-63683162D01*
X113061441Y-63544090D01*
X113206431Y-63331890D01*
X113257440Y-63080000D01*
X113257440Y-62992000D01*
X133034370Y-62992000D01*
X133072560Y-63030190D01*
X133072560Y-64262000D01*
X131320642Y-64262000D01*
X131168286Y-64109378D01*
X130771668Y-63944687D01*
X130342216Y-63944313D01*
X129945311Y-64108311D01*
X129641378Y-64411714D01*
X129476687Y-64808332D01*
X129476313Y-65237784D01*
X129640311Y-65634689D01*
X129943714Y-65938622D01*
X130340332Y-66103313D01*
X130769784Y-66103687D01*
X131166689Y-65939689D01*
X131320646Y-65786000D01*
X139192000Y-65786000D01*
X139483605Y-65727996D01*
X139730815Y-65562815D01*
X140238815Y-65054816D01*
X140340322Y-64902900D01*
X140815481Y-64585409D01*
X141148227Y-64087419D01*
X141265072Y-63500000D01*
X141148227Y-62912581D01*
X141031576Y-62738000D01*
X150111358Y-62738000D01*
X150263714Y-62890622D01*
X150660332Y-63055313D01*
X151089784Y-63055687D01*
X151486689Y-62891689D01*
X151790622Y-62588286D01*
X151955313Y-62191668D01*
X151955687Y-61762216D01*
X151791689Y-61365311D01*
X151694635Y-61268087D01*
X151904449Y-61058639D01*
X152272580Y-60172081D01*
X152273417Y-59212130D01*
X151906834Y-58324931D01*
X151228639Y-57645551D01*
X150342081Y-57277420D01*
X149382130Y-57276583D01*
X148494931Y-57643166D01*
X147815551Y-58321361D01*
X147447420Y-59207919D01*
X147446583Y-60167870D01*
X147813166Y-61055069D01*
X147971820Y-61214000D01*
X135128000Y-61214000D01*
X134836395Y-61272004D01*
X134589184Y-61437185D01*
X134112000Y-61914370D01*
X133888815Y-61691185D01*
X133878653Y-61684395D01*
X133641605Y-61526004D01*
X133350000Y-61468000D01*
X126094373Y-61468000D01*
X126504449Y-61058639D01*
X126872580Y-60172081D01*
X126873417Y-59212130D01*
X126506834Y-58324931D01*
X125828639Y-57645551D01*
X124942081Y-57277420D01*
X123982130Y-57276583D01*
X123094931Y-57643166D01*
X122415551Y-58321361D01*
X122047420Y-59207919D01*
X122046583Y-60167870D01*
X122413166Y-61055069D01*
X122825377Y-61468000D01*
X113257440Y-61468000D01*
X113257440Y-61380000D01*
X113213162Y-61144683D01*
X113074090Y-60928559D01*
X112861890Y-60783569D01*
X112610000Y-60732560D01*
X112522000Y-60732560D01*
X112522000Y-59681964D01*
X112839147Y-59470054D01*
X113161054Y-58988285D01*
X113274093Y-58420000D01*
X113161054Y-57851715D01*
X112839147Y-57369946D01*
X112509974Y-57150000D01*
X112839147Y-56930054D01*
X113161054Y-56448285D01*
X113274093Y-55880000D01*
X113161054Y-55311715D01*
X112839147Y-54829946D01*
X112797548Y-54802150D01*
X112845317Y-54793162D01*
X113061441Y-54654090D01*
X113206431Y-54441890D01*
X113257440Y-54190000D01*
X113257440Y-52490000D01*
X113213162Y-52254683D01*
X113074090Y-52038559D01*
X112861890Y-51893569D01*
X112610000Y-51842560D01*
X110910000Y-51842560D01*
X110674683Y-51886838D01*
X110458559Y-52025910D01*
X110313569Y-52238110D01*
X110262560Y-52490000D01*
X110262560Y-54190000D01*
X110306838Y-54425317D01*
X110445910Y-54641441D01*
X110658110Y-54786431D01*
X110725541Y-54800086D01*
X110680853Y-54829946D01*
X110358946Y-55311715D01*
X110245907Y-55880000D01*
X109930000Y-55880000D01*
X109930000Y-48680000D01*
X110262560Y-48680000D01*
X110262560Y-50380000D01*
X110306838Y-50615317D01*
X110445910Y-50831441D01*
X110658110Y-50976431D01*
X110910000Y-51027440D01*
X112610000Y-51027440D01*
X112845317Y-50983162D01*
X113061441Y-50844090D01*
X113206431Y-50631890D01*
X113257440Y-50380000D01*
X113257440Y-48680000D01*
X113213162Y-48444683D01*
X113074090Y-48228559D01*
X112861890Y-48083569D01*
X112753893Y-48061699D01*
X113031645Y-47756924D01*
X113201476Y-47346890D01*
X113080155Y-47117000D01*
X111887000Y-47117000D01*
X111887000Y-47137000D01*
X111633000Y-47137000D01*
X111633000Y-47117000D01*
X110439845Y-47117000D01*
X110318524Y-47346890D01*
X110488355Y-47756924D01*
X110764501Y-48059937D01*
X110674683Y-48076838D01*
X110458559Y-48215910D01*
X110313569Y-48428110D01*
X110262560Y-48680000D01*
X109930000Y-48680000D01*
X109930000Y-46633110D01*
X110318524Y-46633110D01*
X110439845Y-46863000D01*
X111633000Y-46863000D01*
X111633000Y-45669181D01*
X111887000Y-45669181D01*
X111887000Y-46863000D01*
X113080155Y-46863000D01*
X113201476Y-46633110D01*
X113031645Y-46223076D01*
X112641358Y-45794817D01*
X112116892Y-45548514D01*
X111887000Y-45669181D01*
X111633000Y-45669181D01*
X111403108Y-45548514D01*
X110878642Y-45794817D01*
X110488355Y-46223076D01*
X110318524Y-46633110D01*
X109930000Y-46633110D01*
X109930000Y-45160000D01*
X159310000Y-45160000D01*
X159310000Y-94540000D01*
X159310000Y-94540000D01*
G37*
X159310000Y-94540000D02*
X146732333Y-94540000D01*
X146875313Y-94195668D01*
X146875687Y-93766216D01*
X146711689Y-93369311D01*
X146408286Y-93065378D01*
X146011668Y-92900687D01*
X145582216Y-92900313D01*
X145185311Y-93064311D01*
X144881378Y-93367714D01*
X144732604Y-93726000D01*
X136159167Y-93726000D01*
X136424672Y-93086595D01*
X136425326Y-92336695D01*
X136138957Y-91643628D01*
X135609161Y-91112907D01*
X134916595Y-90825328D01*
X134166695Y-90824674D01*
X133473628Y-91111043D01*
X132942907Y-91640839D01*
X132655328Y-92333405D01*
X132654674Y-93083305D01*
X132920230Y-93726000D01*
X131633631Y-93726000D01*
X131298377Y-93390746D01*
X131424672Y-93086595D01*
X131425326Y-92336695D01*
X131138957Y-91643628D01*
X130609161Y-91112907D01*
X129916595Y-90825328D01*
X129166695Y-90824674D01*
X128473628Y-91111043D01*
X127942907Y-91640839D01*
X127655328Y-92333405D01*
X127654674Y-93083305D01*
X127941043Y-93776372D01*
X128470839Y-94307093D01*
X129031740Y-94540000D01*
X118537204Y-94540000D01*
X119096372Y-94308957D01*
X119627093Y-93779161D01*
X119914672Y-93086595D01*
X119915326Y-92336695D01*
X119628957Y-91643628D01*
X119099161Y-91112907D01*
X118406595Y-90825328D01*
X117656695Y-90824674D01*
X116963628Y-91111043D01*
X116432907Y-91640839D01*
X116145328Y-92333405D01*
X116144674Y-93083305D01*
X116431043Y-93776372D01*
X116960839Y-94307093D01*
X117521740Y-94540000D01*
X113537204Y-94540000D01*
X114096372Y-94308957D01*
X114627093Y-93779161D01*
X114914672Y-93086595D01*
X114915326Y-92336695D01*
X114628957Y-91643628D01*
X114099161Y-91112907D01*
X113406595Y-90825328D01*
X112656695Y-90824674D01*
X111963628Y-91111043D01*
X111432907Y-91640839D01*
X111145328Y-92333405D01*
X111144674Y-93083305D01*
X111431043Y-93776372D01*
X111960839Y-94307093D01*
X112521740Y-94540000D01*
X109930000Y-94540000D01*
X109930000Y-89003320D01*
X114376285Y-89003320D01*
X114505533Y-89296123D01*
X115205806Y-89564388D01*
X115955435Y-89544250D01*
X116554467Y-89296123D01*
X116683715Y-89003320D01*
X130886285Y-89003320D01*
X131015533Y-89296123D01*
X131715806Y-89564388D01*
X132465435Y-89544250D01*
X133064467Y-89296123D01*
X133193715Y-89003320D01*
X132040000Y-87849605D01*
X130886285Y-89003320D01*
X116683715Y-89003320D01*
X115530000Y-87849605D01*
X114376285Y-89003320D01*
X109930000Y-89003320D01*
X109930000Y-87345806D01*
X113635612Y-87345806D01*
X113655750Y-88095435D01*
X113903877Y-88694467D01*
X114196680Y-88823715D01*
X115350395Y-87670000D01*
X115709605Y-87670000D01*
X116863320Y-88823715D01*
X117156123Y-88694467D01*
X117424388Y-87994194D01*
X117406970Y-87345806D01*
X130145612Y-87345806D01*
X130165750Y-88095435D01*
X130413877Y-88694467D01*
X130706680Y-88823715D01*
X131860395Y-87670000D01*
X132219605Y-87670000D01*
X133373320Y-88823715D01*
X133666123Y-88694467D01*
X133934388Y-87994194D01*
X133914250Y-87244565D01*
X133666123Y-86645533D01*
X133373320Y-86516285D01*
X132219605Y-87670000D01*
X131860395Y-87670000D01*
X130706680Y-86516285D01*
X130413877Y-86645533D01*
X130145612Y-87345806D01*
X117406970Y-87345806D01*
X117404250Y-87244565D01*
X117156123Y-86645533D01*
X116863320Y-86516285D01*
X115709605Y-87670000D01*
X115350395Y-87670000D01*
X114196680Y-86516285D01*
X113903877Y-86645533D01*
X113635612Y-87345806D01*
X109930000Y-87345806D01*
X109930000Y-86336680D01*
X114376285Y-86336680D01*
X115530000Y-87490395D01*
X116683715Y-86336680D01*
X130886285Y-86336680D01*
X132040000Y-87490395D01*
X133193715Y-86336680D01*
X133064467Y-86043877D01*
X132364194Y-85775612D01*
X131614565Y-85795750D01*
X131015533Y-86043877D01*
X130886285Y-86336680D01*
X116683715Y-86336680D01*
X116554467Y-86043877D01*
X115854194Y-85775612D01*
X115104565Y-85795750D01*
X114505533Y-86043877D01*
X114376285Y-86336680D01*
X109930000Y-86336680D01*
X109930000Y-81750000D01*
X128092560Y-81750000D01*
X128092560Y-83350000D01*
X128136838Y-83585317D01*
X128275910Y-83801441D01*
X128488110Y-83946431D01*
X128740000Y-83997440D01*
X130340000Y-83997440D01*
X130575317Y-83953162D01*
X130791441Y-83814090D01*
X130936431Y-83601890D01*
X130987440Y-83350000D01*
X130987440Y-82550000D01*
X135696887Y-82550000D01*
X135806120Y-83099151D01*
X136117189Y-83564698D01*
X136582736Y-83875767D01*
X137131887Y-83985000D01*
X137188113Y-83985000D01*
X137737264Y-83875767D01*
X138202811Y-83564698D01*
X138513880Y-83099151D01*
X138623113Y-82550000D01*
X138513880Y-82000849D01*
X138202811Y-81535302D01*
X137737264Y-81224233D01*
X137188113Y-81115000D01*
X137131887Y-81115000D01*
X136582736Y-81224233D01*
X136117189Y-81535302D01*
X135806120Y-82000849D01*
X135696887Y-82550000D01*
X130987440Y-82550000D01*
X130987440Y-81750000D01*
X130943162Y-81514683D01*
X130804090Y-81298559D01*
X130591890Y-81153569D01*
X130340000Y-81102560D01*
X128740000Y-81102560D01*
X128504683Y-81146838D01*
X128288559Y-81285910D01*
X128143569Y-81498110D01*
X128092560Y-81750000D01*
X109930000Y-81750000D01*
X109930000Y-80373403D01*
X139134682Y-80373403D01*
X139413455Y-81048086D01*
X139929199Y-81564730D01*
X140603395Y-81844681D01*
X141333403Y-81845318D01*
X142008086Y-81566545D01*
X142524730Y-81050801D01*
X142785912Y-80421805D01*
X154421805Y-80421805D01*
X154654358Y-80983258D01*
X155145224Y-81504492D01*
X155798193Y-81798203D01*
X156083000Y-81681858D01*
X156083000Y-80137000D01*
X156337000Y-80137000D01*
X156337000Y-81681858D01*
X156621807Y-81798203D01*
X157274776Y-81504492D01*
X157765642Y-80983258D01*
X157998195Y-80421805D01*
X157881432Y-80137000D01*
X156337000Y-80137000D01*
X156083000Y-80137000D01*
X154538568Y-80137000D01*
X154421805Y-80421805D01*
X142785912Y-80421805D01*
X142804681Y-80376605D01*
X142805318Y-79646597D01*
X142785319Y-79598195D01*
X154421805Y-79598195D01*
X154538568Y-79883000D01*
X156083000Y-79883000D01*
X156083000Y-78338142D01*
X156337000Y-78338142D01*
X156337000Y-79883000D01*
X157881432Y-79883000D01*
X157998195Y-79598195D01*
X157765642Y-79036742D01*
X157274776Y-78515508D01*
X156621807Y-78221797D01*
X156337000Y-78338142D01*
X156083000Y-78338142D01*
X155798193Y-78221797D01*
X155145224Y-78515508D01*
X154654358Y-79036742D01*
X154421805Y-79598195D01*
X142785319Y-79598195D01*
X142526545Y-78971914D01*
X142010801Y-78455270D01*
X141336605Y-78175319D01*
X140606597Y-78174682D01*
X139931914Y-78453455D01*
X139415270Y-78969199D01*
X139135319Y-79643395D01*
X139134682Y-80373403D01*
X109930000Y-80373403D01*
X109930000Y-76438935D01*
X118173291Y-76438935D01*
X118356582Y-76882535D01*
X118695680Y-77222225D01*
X119138959Y-77406290D01*
X119618935Y-77406709D01*
X120062535Y-77223418D01*
X120402225Y-76884320D01*
X120586290Y-76441041D01*
X120586393Y-76322685D01*
X121801278Y-75107800D01*
X124201399Y-75107800D01*
X124283680Y-75190225D01*
X124726959Y-75374290D01*
X125206935Y-75374709D01*
X125650535Y-75191418D01*
X125990225Y-74852320D01*
X126174290Y-74409041D01*
X126174709Y-73929065D01*
X125991418Y-73485465D01*
X125652320Y-73145775D01*
X125209041Y-72961710D01*
X124729065Y-72961291D01*
X124285465Y-73144582D01*
X124201701Y-73228200D01*
X121412000Y-73228200D01*
X121052354Y-73299738D01*
X120747461Y-73503461D01*
X119257529Y-74993393D01*
X119141065Y-74993291D01*
X118697465Y-75176582D01*
X118357775Y-75515680D01*
X118173710Y-75958959D01*
X118173291Y-76438935D01*
X109930000Y-76438935D01*
X109930000Y-70825784D01*
X127444313Y-70825784D01*
X127608311Y-71222689D01*
X127911714Y-71526622D01*
X128308332Y-71691313D01*
X128737784Y-71691687D01*
X129134689Y-71527689D01*
X129288646Y-71374000D01*
X141924370Y-71374000D01*
X142176501Y-71626131D01*
X142176313Y-71841784D01*
X142340311Y-72238689D01*
X142491358Y-72390000D01*
X134876642Y-72390000D01*
X134724286Y-72237378D01*
X134327668Y-72072687D01*
X133898216Y-72072313D01*
X133501311Y-72236311D01*
X133197378Y-72539714D01*
X133032687Y-72936332D01*
X133032608Y-73026978D01*
X132618815Y-72613185D01*
X132508858Y-72539714D01*
X132371605Y-72448004D01*
X132080000Y-72390000D01*
X129288642Y-72390000D01*
X129136286Y-72237378D01*
X128739668Y-72072687D01*
X128310216Y-72072313D01*
X127913311Y-72236311D01*
X127609378Y-72539714D01*
X127444687Y-72936332D01*
X127444313Y-73365784D01*
X127608311Y-73762689D01*
X127911714Y-74066622D01*
X127968812Y-74090331D01*
X127825710Y-74434959D01*
X127825291Y-74914935D01*
X128008582Y-75358535D01*
X128347680Y-75698225D01*
X128790959Y-75882290D01*
X128909315Y-75882393D01*
X129383461Y-76356539D01*
X129688354Y-76560262D01*
X130048000Y-76631800D01*
X135377399Y-76631800D01*
X135459680Y-76714225D01*
X135902959Y-76898290D01*
X136382935Y-76898709D01*
X136826535Y-76715418D01*
X136910299Y-76631800D01*
X145537399Y-76631800D01*
X145619680Y-76714225D01*
X146062959Y-76898290D01*
X146542935Y-76898709D01*
X146986535Y-76715418D01*
X147326225Y-76376320D01*
X147510290Y-75933041D01*
X147510709Y-75453065D01*
X147327418Y-75009465D01*
X146988320Y-74669775D01*
X146545041Y-74485710D01*
X146065065Y-74485291D01*
X145621465Y-74668582D01*
X145537701Y-74752200D01*
X136910601Y-74752200D01*
X136828320Y-74669775D01*
X136385041Y-74485710D01*
X136165021Y-74485518D01*
X136207313Y-74383668D01*
X136207687Y-73954216D01*
X136191070Y-73914000D01*
X148079358Y-73914000D01*
X148231714Y-74066622D01*
X148628332Y-74231313D01*
X149057784Y-74231687D01*
X149454689Y-74067689D01*
X149758622Y-73764286D01*
X149923313Y-73367668D01*
X149923687Y-72938216D01*
X149759689Y-72541311D01*
X149456286Y-72237378D01*
X149059668Y-72072687D01*
X148630216Y-72072313D01*
X148233311Y-72236311D01*
X148079354Y-72390000D01*
X144020646Y-72390000D01*
X144170622Y-72240286D01*
X144335313Y-71843668D01*
X144335687Y-71414216D01*
X144171689Y-71017311D01*
X143868286Y-70713378D01*
X143471668Y-70548687D01*
X143254128Y-70548498D01*
X142778815Y-70073185D01*
X142668858Y-69999714D01*
X142531605Y-69908004D01*
X142240000Y-69850000D01*
X129288642Y-69850000D01*
X129136286Y-69697378D01*
X128739668Y-69532687D01*
X128310216Y-69532313D01*
X127913311Y-69696311D01*
X127609378Y-69999714D01*
X127444687Y-70396332D01*
X127444313Y-70825784D01*
X109930000Y-70825784D01*
X109930000Y-65126890D01*
X110318524Y-65126890D01*
X110488355Y-65536924D01*
X110878642Y-65965183D01*
X111403108Y-66211486D01*
X111633000Y-66090819D01*
X111633000Y-64897000D01*
X111887000Y-64897000D01*
X111887000Y-66090819D01*
X112116892Y-66211486D01*
X112641358Y-65965183D01*
X113031645Y-65536924D01*
X113201476Y-65126890D01*
X113080155Y-64897000D01*
X111887000Y-64897000D01*
X111633000Y-64897000D01*
X110439845Y-64897000D01*
X110318524Y-65126890D01*
X109930000Y-65126890D01*
X109930000Y-55880000D01*
X110245907Y-55880000D01*
X110358946Y-56448285D01*
X110680853Y-56930054D01*
X111010026Y-57150000D01*
X110680853Y-57369946D01*
X110358946Y-57851715D01*
X110245907Y-58420000D01*
X110358946Y-58988285D01*
X110680853Y-59470054D01*
X110998000Y-59681964D01*
X110998000Y-60732560D01*
X110910000Y-60732560D01*
X110674683Y-60776838D01*
X110458559Y-60915910D01*
X110313569Y-61128110D01*
X110262560Y-61380000D01*
X110262560Y-63080000D01*
X110306838Y-63315317D01*
X110445910Y-63531441D01*
X110658110Y-63676431D01*
X110766107Y-63698301D01*
X110488355Y-64003076D01*
X110318524Y-64413110D01*
X110439845Y-64643000D01*
X111633000Y-64643000D01*
X111633000Y-64623000D01*
X111887000Y-64623000D01*
X111887000Y-64643000D01*
X113080155Y-64643000D01*
X113201476Y-64413110D01*
X113031645Y-64003076D01*
X112755499Y-63700063D01*
X112845317Y-63683162D01*
X113061441Y-63544090D01*
X113206431Y-63331890D01*
X113257440Y-63080000D01*
X113257440Y-62992000D01*
X133034370Y-62992000D01*
X133072560Y-63030190D01*
X133072560Y-64262000D01*
X131320642Y-64262000D01*
X131168286Y-64109378D01*
X130771668Y-63944687D01*
X130342216Y-63944313D01*
X129945311Y-64108311D01*
X129641378Y-64411714D01*
X129476687Y-64808332D01*
X129476313Y-65237784D01*
X129640311Y-65634689D01*
X129943714Y-65938622D01*
X130340332Y-66103313D01*
X130769784Y-66103687D01*
X131166689Y-65939689D01*
X131320646Y-65786000D01*
X139192000Y-65786000D01*
X139483605Y-65727996D01*
X139730815Y-65562815D01*
X140238815Y-65054816D01*
X140340322Y-64902900D01*
X140815481Y-64585409D01*
X141148227Y-64087419D01*
X141265072Y-63500000D01*
X141148227Y-62912581D01*
X141031576Y-62738000D01*
X150111358Y-62738000D01*
X150263714Y-62890622D01*
X150660332Y-63055313D01*
X151089784Y-63055687D01*
X151486689Y-62891689D01*
X151790622Y-62588286D01*
X151955313Y-62191668D01*
X151955687Y-61762216D01*
X151791689Y-61365311D01*
X151694635Y-61268087D01*
X151904449Y-61058639D01*
X152272580Y-60172081D01*
X152273417Y-59212130D01*
X151906834Y-58324931D01*
X151228639Y-57645551D01*
X150342081Y-57277420D01*
X149382130Y-57276583D01*
X148494931Y-57643166D01*
X147815551Y-58321361D01*
X147447420Y-59207919D01*
X147446583Y-60167870D01*
X147813166Y-61055069D01*
X147971820Y-61214000D01*
X135128000Y-61214000D01*
X134836395Y-61272004D01*
X134589184Y-61437185D01*
X134112000Y-61914370D01*
X133888815Y-61691185D01*
X133878653Y-61684395D01*
X133641605Y-61526004D01*
X133350000Y-61468000D01*
X126094373Y-61468000D01*
X126504449Y-61058639D01*
X126872580Y-60172081D01*
X126873417Y-59212130D01*
X126506834Y-58324931D01*
X125828639Y-57645551D01*
X124942081Y-57277420D01*
X123982130Y-57276583D01*
X123094931Y-57643166D01*
X122415551Y-58321361D01*
X122047420Y-59207919D01*
X122046583Y-60167870D01*
X122413166Y-61055069D01*
X122825377Y-61468000D01*
X113257440Y-61468000D01*
X113257440Y-61380000D01*
X113213162Y-61144683D01*
X113074090Y-60928559D01*
X112861890Y-60783569D01*
X112610000Y-60732560D01*
X112522000Y-60732560D01*
X112522000Y-59681964D01*
X112839147Y-59470054D01*
X113161054Y-58988285D01*
X113274093Y-58420000D01*
X113161054Y-57851715D01*
X112839147Y-57369946D01*
X112509974Y-57150000D01*
X112839147Y-56930054D01*
X113161054Y-56448285D01*
X113274093Y-55880000D01*
X113161054Y-55311715D01*
X112839147Y-54829946D01*
X112797548Y-54802150D01*
X112845317Y-54793162D01*
X113061441Y-54654090D01*
X113206431Y-54441890D01*
X113257440Y-54190000D01*
X113257440Y-52490000D01*
X113213162Y-52254683D01*
X113074090Y-52038559D01*
X112861890Y-51893569D01*
X112610000Y-51842560D01*
X110910000Y-51842560D01*
X110674683Y-51886838D01*
X110458559Y-52025910D01*
X110313569Y-52238110D01*
X110262560Y-52490000D01*
X110262560Y-54190000D01*
X110306838Y-54425317D01*
X110445910Y-54641441D01*
X110658110Y-54786431D01*
X110725541Y-54800086D01*
X110680853Y-54829946D01*
X110358946Y-55311715D01*
X110245907Y-55880000D01*
X109930000Y-55880000D01*
X109930000Y-48680000D01*
X110262560Y-48680000D01*
X110262560Y-50380000D01*
X110306838Y-50615317D01*
X110445910Y-50831441D01*
X110658110Y-50976431D01*
X110910000Y-51027440D01*
X112610000Y-51027440D01*
X112845317Y-50983162D01*
X113061441Y-50844090D01*
X113206431Y-50631890D01*
X113257440Y-50380000D01*
X113257440Y-48680000D01*
X113213162Y-48444683D01*
X113074090Y-48228559D01*
X112861890Y-48083569D01*
X112753893Y-48061699D01*
X113031645Y-47756924D01*
X113201476Y-47346890D01*
X113080155Y-47117000D01*
X111887000Y-47117000D01*
X111887000Y-47137000D01*
X111633000Y-47137000D01*
X111633000Y-47117000D01*
X110439845Y-47117000D01*
X110318524Y-47346890D01*
X110488355Y-47756924D01*
X110764501Y-48059937D01*
X110674683Y-48076838D01*
X110458559Y-48215910D01*
X110313569Y-48428110D01*
X110262560Y-48680000D01*
X109930000Y-48680000D01*
X109930000Y-46633110D01*
X110318524Y-46633110D01*
X110439845Y-46863000D01*
X111633000Y-46863000D01*
X111633000Y-45669181D01*
X111887000Y-45669181D01*
X111887000Y-46863000D01*
X113080155Y-46863000D01*
X113201476Y-46633110D01*
X113031645Y-46223076D01*
X112641358Y-45794817D01*
X112116892Y-45548514D01*
X111887000Y-45669181D01*
X111633000Y-45669181D01*
X111403108Y-45548514D01*
X110878642Y-45794817D01*
X110488355Y-46223076D01*
X110318524Y-46633110D01*
X109930000Y-46633110D01*
X109930000Y-45160000D01*
X159310000Y-45160000D01*
X159310000Y-94540000D01*
M02*
